<?xml version="1.0" standalone="no"?><!DOCTYPE svg PUBLIC "-//W3C//DTD SVG 1.1//EN" "http://www.w3.org/Graphics/SVG/1.1/DTD/svg11.dtd"><svg width="100%" height="100%" viewBox="0 0 200 350" version="1.1" xmlns="http://www.w3.org/2000/svg" xmlns:xlink="http://www.w3.org/1999/xlink" xml:space="preserve" style="fill-rule:evenodd;clip-rule:evenodd;stroke-linecap:round;stroke-linejoin:round;stroke-miterlimit:1.41421;"><g id="Calque1"><path d="M51.16,4.735c0,0 7.49,9.427 10.71,22.081c3.342,13.132 8.253,30.594 8.253,50.903c0,22.9 2.175,45.06 -1.942,58.302c-3.053,9.819 -15.716,9.905 -15.716,9.905c0,0 -18.093,-28.328 -18.093,-68.207c0,-39.879 16.788,-72.984 16.788,-72.984Z" style="fill:#f97966;"/><clipPath id="_clip1"><path d="M51.16,4.735c0,0 7.49,9.427 10.71,22.081c3.342,13.132 8.253,30.594 8.253,50.903c0,22.9 2.175,45.06 -1.942,58.302c-3.053,9.819 -15.716,9.905 -15.716,9.905c0,0 -18.093,-28.328 -18.093,-68.207c0,-39.879 16.788,-72.984 16.788,-72.984Z"/></clipPath><g clip-path="url(#_clip1)"><path d="M63.372,73.393l16.003,14.457l-10.042,11.116l-16.003,-14.456l-14.456,16.003l-11.117,-10.041l14.457,-16.004l-16.004,-14.456l10.042,-11.116l16.003,14.456l14.456,-16.004l11.117,10.042l-14.456,16.003Z" style="fill:#fcbab0;"/></g><path d="M52.014,5.985c6.13,-0.066 19.41,47.001 19.237,76.374c1.639,45.295 -3.659,72.074 -17.228,76.074l-0.621,-0.01c-13.655,-3.696 -19.552,-30.349 -18.929,-75.67c-0.836,-29.512 11.412,-76.702 17.541,-76.768Z" style="fill:none;stroke-width:4px;stroke:#000;"/><path d="M11.592,41.616c0,0 8.472,6.277 14.064,16.25c5.803,10.351 13.915,24.008 18.518,41.187c5.191,19.37 8.743,38.291 8.262,50.426c-0.357,8.997 -3.452,13.793 -7.005,14.746c-8.346,2.236 -22.459,-23.336 -31.498,-57.068c-9.039,-33.733 -2.341,-65.541 -2.341,-65.541Z" style="fill:#669df9;"/><clipPath id="_clip2"><path d="M11.592,41.616c0,0 8.472,6.277 14.064,16.25c5.803,10.351 13.915,24.008 18.518,41.187c5.191,19.37 8.743,38.291 8.262,50.426c-0.357,8.997 -3.452,13.793 -7.005,14.746c-8.346,2.236 -22.459,-23.336 -31.498,-57.068c-9.039,-33.733 -2.341,-65.541 -2.341,-65.541Z"/></clipPath><g clip-path="url(#_clip2)"><path d="M24.019,38.227l-24.148,6.47l12.248,45.71l8.874,-15.225l15.274,8.754l-12.248,-45.709Z" style="fill:#b0ccfc;"/></g><path d="M12.024,42.981c4.885,-1.366 25.58,33.409 31.732,56.923c11.011,35.853 12.511,58.39 2.523,64.494l-0.498,0.124c-11.706,-0.029 -22.128,-20.069 -31.336,-56.426c-6.988,-23.41 -7.306,-63.75 -2.421,-65.115Z" style="fill:none;stroke-width:4px;stroke:#000;"/><path d="M178.029,234.846c-12.15,12.25 -24.375,29.032 -24.375,29.032l-15.949,-11.071c0,0 -10.381,-2.767 -14.936,-6.049l-36.604,-0.034c-28.711,11.561 -27.865,17.614 -27.865,17.614c0,0 -13.039,-10.668 -19.846,-19.112c0.021,0.961 -3.246,-17.208 -3.246,-29.303c0,-5.078 -0.809,-16.463 -0.809,-16.463l6.521,-28.745l60.971,-6.042l72.225,4.036c0,0 6.292,24.707 6.292,44.09c0,6.477 -1.447,15.93 -2.379,22.047Z" style="fill:#edbe87;"/><path d="M26.264,210.726l7.578,-3.236l4.244,21.803l-0.066,9.866l-7.504,-0.044l-4.207,-13.497l-0.045,-14.892Z" style="fill:#e6ccad;"/><path d="M37.366,237.336c0,0 -2.993,0.708 -5.723,0.086c-0.755,-1.304 -1.209,-2.988 -1.612,-4.419c-0.649,-2.305 -1.094,-4.607 -1.473,-6.96c-0.63,-3.917 -0.908,-7.882 -0.887,-11.815c0.006,-1.205 0.383,-1.937 0.698,-2.425c1.266,-0.854 3.055,-1.586 4.893,-2.413l1.012,-0.463l0.235,-4.136l-1.428,0.608c-2.337,0.972 -4.278,1.875 -6.027,2.84c-0.584,0.322 -0.822,0.604 -1.346,0.965c-0.801,0.887 -1.533,2.196 -1.663,4.082c-0.24,3.682 -0.194,7.432 0.374,11.221c0.412,3.117 1.051,6.206 1.953,9.3c0.4,1.904 0.94,3.494 1.694,4.937c0.562,1.094 1.433,1.932 2.355,2.199c1.746,0.413 4.83,0.138 7.234,0.03l-0.289,-3.637Z" style="fill:#000;"/><path d="M188.921,210.726l-9.581,-4.322l-0.38,23.304l-1.795,9.451l7.504,-0.044l4.207,-13.497l0.045,-14.892Z" style="fill:#e6ccad;"/><path d="M179.368,237.654c0,0 1.444,0.119 4.174,-0.232c0.755,-1.304 1.209,-2.988 1.612,-4.419c0.649,-2.305 1.094,-4.607 1.473,-6.96c0.63,-3.917 0.908,-7.882 0.887,-11.815c-0.006,-1.205 -0.383,-1.937 -0.698,-2.425c-1.266,-0.854 -3.055,-1.586 -4.893,-2.413l-1.012,-0.463l-0.235,-4.136l1.428,0.608c2.337,0.972 4.278,1.875 6.027,2.84c0.584,0.322 0.822,0.604 1.346,0.965c0.801,0.887 1.533,2.196 1.663,4.082c0.24,3.682 0.194,7.432 -0.374,11.221c-0.412,3.117 -1.051,6.206 -1.953,9.3c-0.4,1.904 -0.94,3.494 -1.694,4.937c-0.562,1.094 -1.433,1.932 -2.355,2.199c-1.746,0.413 -3.657,0.498 -6.06,0.391l0.664,-3.68Z" style="fill:#000;"/><path d="M23.952,184.249l8.924,19.158l7.768,-29.779l70.499,-5.322l62.823,4.919c3.235,12.431 7.366,28.802 7.366,28.802l8.787,-27.85l-7.737,-44.411l-11.403,-10.925l0.073,-3.9l13.817,-2.708l-13.897,-11.261l-27.53,-7.812l10.006,-9.357l-40.945,6.305l2.272,-8.651l-26.102,10.416l4.581,-13.434l-34.472,17.85l-24.927,22.38l-10.853,20.694l-1.741,21.787l2.691,23.099Z" style="fill:#875b0f;"/><ellipse cx="72.088" cy="208.241" rx="8" ry="11.082" style="fill:#000;"/><clipPath id="_clip3"><ellipse cx="72.088" cy="208.241" rx="8" ry="11.082"/></clipPath><g clip-path="url(#_clip3)"><circle cx="73.722" cy="205.921" r="3" style="fill:#fff;"/></g><ellipse cx="138.088" cy="208.241" rx="8" ry="11.082" style="fill:#000;"/><clipPath id="_clip4"><ellipse cx="138.088" cy="208.241" rx="8" ry="11.082"/></clipPath><g clip-path="url(#_clip4)"><circle cx="136.455" cy="205.921" r="3" style="fill:#fff;"/></g><path d="M38.014,241.939c0.379,17.315 7.219,40.899 15.826,56.778c2.323,-4.261 5.543,-7.9 8.414,-12.113c2.286,20.886 21.047,44.711 21.047,44.711l24.323,-18.244l-7.256,28.333l34.814,-21.626l-2.382,17.171l18.472,-20.866l12.471,-28.798l5.666,14.681c0,0 3.607,-10.056 7.323,-23.078c2.55,-8.576 2.541,-26.559 1.549,-44.296c-12.232,12.271 -24.627,29.286 -24.627,29.286l-15.949,-11.071c0,0 -10.381,-2.767 -14.936,-6.049l-36.604,-0.034c-28.711,11.561 -27.865,17.614 -27.865,17.614c0,0 -13.479,-13.956 -20.286,-22.399Z" style="fill:#885b0f;"/><path d="M153.096,265.178c0,0 20.089,-29.281 24.438,-28.687c4.349,0.593 1.656,32.247 1.656,32.247c-2.08,11.812 -5.463,22.41 -9.169,32.706l-6.495,-14.335c-5.706,21.3 -17.802,38.751 -30.99,49.667l2.849,-16.923l-37.837,25.412l9.989,-31.685l-24.237,17.72c-11.07,-14.55 -19.397,-29.594 -21.23,-45.806l-8.498,14.061c-8.251,-18.26 -15.127,-40.977 -16.347,-59.224l21.479,24.46c1.458,-2.479 2.874,-4.546 4.72,-5.834c9.393,-6.554 13.865,-5.807 22.986,-12.5l36.937,-0.237c12.657,7.288 22.534,7.151 29.749,18.958Z" style="fill:none;stroke-width:4px;stroke:#000;"/><path d="M87.557,255.712l34.564,-0.021c0,0 0,0.001 0,0.001c-3.555,5.572 -9.676,8.981 -16.286,9.069c-0.584,0.007 -1.171,0.015 -1.755,0.023c-6.719,0.089 -12.991,-3.355 -16.523,-9.071c0,0 0,-0.001 0,-0.001Z" style="fill:#fff;stroke-width:3px;stroke:#000;"/><path d="M90.925,236.93c9.108,-5.842 17.926,-6.228 26.44,-0.898" style="fill:none;stroke-width:3px;stroke:#b38044;"/><path d="M33.151,206.91c1.912,-17.239 5.605,-30.55 10.966,-39.075c36.49,-21.862 78.486,-21.08 125.502,-2.367c6.393,10.549 10.136,26.884 11.888,43.969" style="fill:none;stroke-width:4px;stroke:#000;"/><path d="M155.685,199.839c-7.361,-6.827 -15.6,-11.229 -23.85,-16.318c-12.8,-7.893 -46.68,-24.727 -46.68,-24.727l23.614,25.52l-60.187,-26.599c0,0 10.767,9.902 14.476,12.942c3.14,2.573 11.664,10.587 11.664,10.587c0,0 -20.562,-7.333 -29.103,-10.256c-7.361,-2.519 -15.033,-3.047 -22.17,-7.806l56.445,-2.292l75.869,5.526l9.029,13.985l-33.052,-10.341l23.945,29.779Z" style="fill:#82570f;"/><path d="M23.057,165.21c0,0 15.869,3.83 24.663,6.265c7.71,2.135 31.156,13.147 31.156,13.147c-6.512,-10.442 -27.777,-21.034 -35.985,-28.885c8.503,1.142 31.94,12.916 45.252,18.57l29.937,17.137l-38.689,-35.899c20.796,7.846 55.965,28.846 79.241,46.696l-31.578,-35.665l40.621,15.601l-21.318,-22.471" style="fill:#885b0f;stroke-width:4px;stroke:#000;"/><path d="M23.02,148.144l-1.432,13.703c0,0 1.914,12.062 2.055,12.774c0,0 44.709,-5.908 83.633,-5.916c38.924,-0.008 80.724,7.17 80.724,7.17l0.375,-10.855l-12.653,-18.65c0,0 -30.873,-4.679 -68.819,-4.679c-37.946,0 -83.883,6.453 -83.883,6.453Z" style="fill:#669df9;"/><path d="M39.104,171.54l17.851,-28.242l-35.352,5.881l17.501,22.361Z" style="fill:#f97966;"/><path d="M59.875,144.603l20.057,23.063l17.133,-25.857l-37.19,2.794Z" style="fill:#f97966;"/><path d="M100.221,142.15l17.261,24.403l20.065,-23.882l-37.326,-0.521Z" style="fill:#f97966;"/><path d="M139.08,143.311l19.719,26.376l15.476,-23.231l-35.195,-3.145Z" style="fill:#f97966;"/><path d="M187.59,161.547l-1.526,-14.022l-9.497,0.246l11.023,13.776Z" style="fill:#f97966;"/><path d="M23.942,148.099c12.128,-1.803 19.172,-3.287 31.381,-4.422c15.243,-1.417 40.32,-2.908 55.067,-3.094c11.157,-0.141 22.303,0.971 33.416,1.976c12.289,1.112 27.993,2.527 41.432,4.092" style="fill:none;stroke-width:4px;stroke:#081106;"/><path d="M24.354,175.742c11.902,-1.53 19.952,-2.664 31.727,-3.87c11.621,-1.189 23.27,-2.256 34.945,-2.646c12.477,-0.417 26.891,-0.487 39.917,0.146c12.789,0.621 28.533,2.454 38.238,3.648c6.716,0.825 11.992,2.169 18.656,3.34" style="fill:none;stroke-width:4px;stroke:#081106;"/><path d="M22.197,151.814l16.366,21.138l19.939,-29.145l20.885,25.456l18.248,-27.329l19.78,25.857l18.898,-25.764l22.397,28.374l16.378,-24.316l12.667,18.089" style="fill:none;stroke-width:4px;stroke:#081106;"/><path d="M37.909,245.026c-1.632,-12.444 -2.436,-29.428 -5.85,-41.622c-2.145,-7.661 -6.246,-14.676 -8.456,-22.319c-6.276,-21.702 -2.736,-46.872 12.1,-64.437c9.505,-11.255 17.985,-17.86 30.27,-25.645c8.122,-5.146 18.483,-9.247 29.113,-11.831l-8.528,14.028l29.159,-13.046l-4.433,9.785l46.908,-6.35l-17.072,9.412c21.413,1.108 43.458,17.725 43.226,20.494l-14.575,1.208c0,0 11.422,14.016 14.292,21.616c3.493,13.992 5.113,24.811 4.074,39.273c-1.093,15.226 -4.194,14.678 -6.8,29.559c-2.521,14.398 -0.596,18.416 -2.426,32.865" style="fill:none;stroke-width:4px;stroke:#081106;"/></g></svg>